<?xml version="1.0" standalone="no"?>
<svg xmlns:xlink="http://www.w3.org/1999/xlink" id="wave" style="transform:rotate(180deg); transition: 0.3s" viewBox="0 0 1440 200" version="1.1" xmlns="http://www.w3.org/2000/svg"><defs><linearGradient id="sw-gradient-0" x1="0" x2="0" y1="1" y2="0"><stop stop-color="rgba(255, 255, 255, 1)" offset="0%"/><stop stop-color="rgba(255, 255, 255, 1)" offset="100%"/></linearGradient></defs><path style="transform:translate(0, 0px); opacity:1" fill="url(#sw-gradient-0)" d="M0,0L80,23.3C160,47,320,93,480,93.3C640,93,800,47,960,40C1120,33,1280,67,1440,80C1600,93,1760,87,1920,70C2080,53,2240,27,2400,40C2560,53,2720,107,2880,130C3040,153,3200,147,3360,123.3C3520,100,3680,60,3840,56.7C4000,53,4160,87,4320,83.3C4480,80,4640,40,4800,33.3C4960,27,5120,53,5280,66.7C5440,80,5600,80,5760,96.7C5920,113,6080,147,6240,160C6400,173,6560,167,6720,136.7C6880,107,7040,53,7200,40C7360,27,7520,53,7680,83.3C7840,113,8000,147,8160,136.7C8320,127,8480,73,8640,60C8800,47,8960,73,9120,70C9280,67,9440,33,9600,23.3C9760,13,9920,27,10080,50C10240,73,10400,107,10560,130C10720,153,10880,167,11040,146.7C11200,127,11360,73,11440,46.7L11520,20L11520,200L11440,200C11360,200,11200,200,11040,200C10880,200,10720,200,10560,200C10400,200,10240,200,10080,200C9920,200,9760,200,9600,200C9440,200,9280,200,9120,200C8960,200,8800,200,8640,200C8480,200,8320,200,8160,200C8000,200,7840,200,7680,200C7520,200,7360,200,7200,200C7040,200,6880,200,6720,200C6560,200,6400,200,6240,200C6080,200,5920,200,5760,200C5600,200,5440,200,5280,200C5120,200,4960,200,4800,200C4640,200,4480,200,4320,200C4160,200,4000,200,3840,200C3680,200,3520,200,3360,200C3200,200,3040,200,2880,200C2720,200,2560,200,2400,200C2240,200,2080,200,1920,200C1760,200,1600,200,1440,200C1280,200,1120,200,960,200C800,200,640,200,480,200C320,200,160,200,80,200L0,200Z"/></svg>